<svg xmlns="http://www.w3.org/2000/svg" xmlns:xlink="http://www.w3.org/1999/xlink" viewBox="0 0 251.52 73.51"><defs><style>.cls-1,.cls-3{fill:none;}.cls-2{clip-path:url(#clip-path);}.cls-3{stroke:#fff;stroke-miterlimit:10;stroke-width:1.87px;}.cls-4{fill:#fff;}</style><clipPath id="clip-path" transform="translate(-0.73 -0.73)"><rect class="cls-1" width="253.13" height="75"/></clipPath></defs><title>app_store</title><g id="Слой_2" data-name="Слой 2"><g id="Слой_1-2" data-name="Слой 1"><g class="cls-2"><path class="cls-3" d="M251.31,66.13a7.18,7.18,0,0,1-7.19,7.18H8.87a7.19,7.19,0,0,1-7.2-7.18V8.86a7.19,7.19,0,0,1,7.2-7.19H244.12a7.18,7.18,0,0,1,7.19,7.19V66.13Z" transform="translate(-0.73 -0.73)"/></g><path class="cls-4" d="M56.49,37.09A10.86,10.86,0,0,1,61.67,28a11.17,11.17,0,0,0-8.77-4.74c-3.69-.38-7.27,2.21-9.15,2.21s-4.81-2.17-7.92-2.1a11.67,11.67,0,0,0-9.83,6c-4.25,7.35-1.08,18.16,3,24.11,2,2.91,4.42,6.16,7.53,6.05s4.19-2,7.86-2,4.72,2,7.89,1.87,5.33-2.92,7.3-5.86a24.16,24.16,0,0,0,3.33-6.79,10.52,10.52,0,0,1-6.41-9.67Z" transform="translate(-0.73 -0.73)"/><path class="cls-4" d="M50.49,19.32a10.68,10.68,0,0,0,2.45-7.66,10.91,10.91,0,0,0-7,3.64,10.19,10.19,0,0,0-2.51,7.39,9,9,0,0,0,7.11-3.37Z" transform="translate(-0.73 -0.73)"/><path class="cls-4" d="M93.29,48.67l-2.11-6.52c-.22-.67-.64-2.23-1.26-4.7h-.07c-.25,1.06-.64,2.63-1.19,4.7l-2.07,6.52Zm7.29,10.4H96.33L94,51.74h-8.1l-2.22,7.33H79.52l8-25h5l8.07,25Z" transform="translate(-0.73 -0.73)"/><path class="cls-4" d="M117.17,50A7.4,7.4,0,0,0,116,45.67a4.07,4.07,0,0,0-3.48-1.78,4.16,4.16,0,0,0-2.68,1,4.53,4.53,0,0,0-1.57,2.58,4.92,4.92,0,0,0-.19,1.22v3A4.78,4.78,0,0,0,109.27,55a4,4,0,0,0,3.12,1.35,4.09,4.09,0,0,0,3.52-1.74A7.65,7.65,0,0,0,117.17,50Zm4.07-.15a10.26,10.26,0,0,1-2.48,7.26,7.25,7.25,0,0,1-5.51,2.37,5.52,5.52,0,0,1-5.11-2.56h-.08V66.4h-4V47c0-1.92,0-3.9-.14-5.92h3.51l.22,2.85h.08a7.12,7.12,0,0,1,11.38-.71,9.92,9.92,0,0,1,2.13,6.63Z" transform="translate(-0.73 -0.73)"/><path class="cls-4" d="M137.86,50a7.4,7.4,0,0,0-1.18-4.33,4.08,4.08,0,0,0-3.48-1.78,4.19,4.19,0,0,0-2.69,1,4.58,4.58,0,0,0-1.57,2.58,5.35,5.35,0,0,0-.18,1.22v3A4.82,4.82,0,0,0,130,55a4,4,0,0,0,3.13,1.35,4.08,4.08,0,0,0,3.51-1.74A7.65,7.65,0,0,0,137.86,50Zm4.08-.15a10.22,10.22,0,0,1-2.49,7.26,7.23,7.23,0,0,1-5.51,2.37,5.53,5.53,0,0,1-5.11-2.56h-.07V66.4h-4V47c0-1.92-.05-3.9-.15-5.92h3.52l.22,2.85h.07a7.13,7.13,0,0,1,11.39-.71,9.92,9.92,0,0,1,2.13,6.63Z" transform="translate(-0.73 -0.73)"/><path class="cls-4" d="M165.07,52.07a6.66,6.66,0,0,1-2.21,5.19,9.87,9.87,0,0,1-6.8,2.18,12,12,0,0,1-6.47-1.55l.93-3.34a11,11,0,0,0,5.78,1.6,5.47,5.47,0,0,0,3.52-1,3.32,3.32,0,0,0,1.25-2.73,3.48,3.48,0,0,0-1-2.56,9.8,9.8,0,0,0-3.44-1.93Q150,45.47,150,40.76a6.35,6.35,0,0,1,2.3-5,9.06,9.06,0,0,1,6.11-2,12.08,12.08,0,0,1,5.66,1.18l-1,3.26A9.91,9.91,0,0,0,158.33,37a4.84,4.84,0,0,0-3.29,1,3,3,0,0,0-1,2.26,3,3,0,0,0,1.15,2.44,13.21,13.21,0,0,0,3.63,1.93,12.35,12.35,0,0,1,4.74,3,6.37,6.37,0,0,1,1.51,4.33Z" transform="translate(-0.73 -0.73)"/><path class="cls-4" d="M178.29,44.08h-4.41v8.73c0,2.22.78,3.34,2.34,3.34A7.25,7.25,0,0,0,178,56l.11,3a9.13,9.13,0,0,1-3.11.44,4.81,4.81,0,0,1-3.7-1.44c-.88-1-1.33-2.58-1.33-4.85V44.08h-2.63v-3H170v-3.3l3.92-1.18v4.48h4.41v3Z" transform="translate(-0.73 -0.73)"/><path class="cls-4" d="M194,50.06A8.06,8.06,0,0,0,193,45.79a4,4,0,0,0-3.59-2.16,4,4,0,0,0-3.67,2.16,8.29,8.29,0,0,0-1.07,4.34,8.18,8.18,0,0,0,1.07,4.27,4.06,4.06,0,0,0,3.63,2.15,4,4,0,0,0,3.59-2.19,8.1,8.1,0,0,0,1.11-4.3Zm4.15-.13a9.88,9.88,0,0,1-2.37,6.81,8.47,8.47,0,0,1-6.59,2.74,8.06,8.06,0,0,1-6.31-2.63,9.55,9.55,0,0,1-2.35-6.63A9.82,9.82,0,0,1,183,43.37a8.44,8.44,0,0,1,6.54-2.66,8.21,8.21,0,0,1,6.37,2.63,9.48,9.48,0,0,1,2.29,6.59Z" transform="translate(-0.73 -0.73)"/><path class="cls-4" d="M211.16,44.59a7.12,7.12,0,0,0-1.26-.11,3.75,3.75,0,0,0-3.25,1.6,5.94,5.94,0,0,0-1,3.55v9.44h-4l0-12.33c0-2.07-.05-4-.15-5.66H205l.15,3.44h.1a6.21,6.21,0,0,1,2-2.85,4.81,4.81,0,0,1,2.88-1,6,6,0,0,1,1,.07v3.81Z" transform="translate(-0.73 -0.73)"/><path class="cls-4" d="M225.23,48.19a5.36,5.36,0,0,0-.78-3.08,3.48,3.48,0,0,0-3.18-1.66,3.81,3.81,0,0,0-3.19,1.63,6,6,0,0,0-1.18,3.11Zm3.81,1A9.48,9.48,0,0,1,228.9,51h-12a5.25,5.25,0,0,0,1.74,4.07,5.93,5.93,0,0,0,3.92,1.26,13.47,13.47,0,0,0,4.86-.85l.62,2.77a15,15,0,0,1-6,1.11,8.72,8.72,0,0,1-6.57-2.46,9.09,9.09,0,0,1-2.39-6.61,10.31,10.31,0,0,1,2.22-6.77,7.66,7.66,0,0,1,6.29-2.89,6.68,6.68,0,0,1,5.89,2.89A9.71,9.71,0,0,1,229,49.22Z" transform="translate(-0.73 -0.73)"/><path class="cls-4" d="M81.42,13.64A7.15,7.15,0,0,1,82.87,13a6.32,6.32,0,0,1,1.9-.26,4.25,4.25,0,0,1,2.78.84,2.74,2.74,0,0,1,1,2.25,2.76,2.76,0,0,1-.68,1.89,3.35,3.35,0,0,1-1.74,1v.05a5,5,0,0,1,1.1.32,3.38,3.38,0,0,1,.91.61,2.91,2.91,0,0,1,.62.89A2.78,2.78,0,0,1,89,21.73a3.23,3.23,0,0,1-.41,1.71,3.4,3.4,0,0,1-1.07,1.13A4.57,4.57,0,0,1,86,25.2a7.64,7.64,0,0,1-1.64.19,8.4,8.4,0,0,1-1.73-.18,5.82,5.82,0,0,1-1.58-.61l.49-1.5a9,9,0,0,0,1.22.45,5.21,5.21,0,0,0,1.51.22,3,3,0,0,0,1.94-.57,2.06,2.06,0,0,0,.41-2.55A2,2,0,0,0,86,20a3.35,3.35,0,0,0-1-.32,6.56,6.56,0,0,0-1.07-.1h-.82V18.09h.82A3.51,3.51,0,0,0,85,18a2.58,2.58,0,0,0,.83-.41,2,2,0,0,0,.56-.63,1.69,1.69,0,0,0,.2-.82A1.55,1.55,0,0,0,86,14.81a2.45,2.45,0,0,0-1.57-.46,4.18,4.18,0,0,0-1.34.22,8.59,8.59,0,0,0-1.2.47l-.44-1.4Z" transform="translate(-0.73 -0.73)"/><path class="cls-4" d="M96.77,20.79a5.67,5.67,0,0,0-2.45.41,1.43,1.43,0,0,0-.81,1.37,1.37,1.37,0,0,0,.38,1,1.44,1.44,0,0,0,1,.34,2,2,0,0,0,.73-.14,1.84,1.84,0,0,0,.6-.37,1.86,1.86,0,0,0,.43-.57,1.64,1.64,0,0,0,.16-.72V20.79Zm.27,4.4-.14-1h-.06a3,3,0,0,1-2.58,1.22,2.76,2.76,0,0,1-2-.75,2.35,2.35,0,0,1-.56-.82,2.66,2.66,0,0,1-.2-1A2.74,2.74,0,0,1,92.9,20.3a7.33,7.33,0,0,1,3.82-.82v-.17c0-1.16-.62-1.74-1.84-1.74a4.13,4.13,0,0,0-2.3.65l-.4-1.29a5.58,5.58,0,0,1,3-.76c2.31,0,3.47,1.21,3.47,3.65v3.26a12.71,12.71,0,0,0,.13,2.11Z" transform="translate(-0.73 -0.73)"/><polygon class="cls-4" points="107.42 15.62 107.42 17.23 103.75 17.23 103.75 24.46 101.79 24.46 101.79 15.62 107.42 15.62 107.42 15.62"/><path class="cls-4" d="M117.4,20.73a4.6,4.6,0,0,0-.16-1.21,2.65,2.65,0,0,0-.45-.94,2.28,2.28,0,0,0-.73-.62,2.06,2.06,0,0,0-1-.23,2,2,0,0,0-.82.18,2.45,2.45,0,0,0-.7.49,2.44,2.44,0,0,0-.66,1.68v1.47a2.45,2.45,0,0,0,.16.91,2.14,2.14,0,0,0,.43.73,2.09,2.09,0,0,0,.68.48,2.16,2.16,0,0,0,.86.17,2,2,0,0,0,1.73-.84,3.79,3.79,0,0,0,.62-2.27Zm2-.07a6,6,0,0,1-.29,1.93,4.36,4.36,0,0,1-.81,1.49,3.6,3.6,0,0,1-2.82,1.31A2.7,2.7,0,0,1,113,24.13h0v4.66h-2V19.26c0-.48,0-1,0-1.43s0-1-.06-1.48h1.73l.11,1.4h0a3.26,3.26,0,0,1,3-1.58,3.3,3.3,0,0,1,1.44.32,3.56,3.56,0,0,1,1.16.92,4.31,4.31,0,0,1,.77,1.42,5.58,5.58,0,0,1,.28,1.83Z" transform="translate(-0.73 -0.73)"/><path class="cls-4" d="M130,16.35l-2.24,6.13a26.45,26.45,0,0,1-1.56,3.57,8,8,0,0,1-1.44,2,4.31,4.31,0,0,1-2.17,1.11l-.47-1.66a3.72,3.72,0,0,0,1.46-.78,4.35,4.35,0,0,0,1.11-1.45,1.33,1.33,0,0,0,.14-.4,1.6,1.6,0,0,0-.11-.42l-3.2-8.13h2.16l1.68,4.93c.08.23.17.49.25.78s.18.61.27,1h0c.06-.19.13-.44.2-.73s.17-.64.29-1l1.49-4.91Z" transform="translate(-0.73 -0.73)"/><path class="cls-4" d="M133.35,20h.91a2.78,2.78,0,0,0,1.54-.36,1.07,1.07,0,0,0,.55-.89,1,1,0,0,0-.47-.88,2.24,2.24,0,0,0-1.28-.32,3.26,3.26,0,0,0-1.06.17,4.93,4.93,0,0,0-1,.43L132,16.89a5.24,5.24,0,0,1,1.52-.57,7.66,7.66,0,0,1,1.51-.15,7.19,7.19,0,0,1,1.22.11,3.66,3.66,0,0,1,1.08.4,2.47,2.47,0,0,1,.77.74,2,2,0,0,1,.3,1.13,1.61,1.61,0,0,1-.17.74,1.79,1.79,0,0,1-.43.56,2.47,2.47,0,0,1-.61.4,3.41,3.41,0,0,1-.68.23v.05a3.47,3.47,0,0,1,.84.22,2.71,2.71,0,0,1,.74.43,2.15,2.15,0,0,1,.53.63,1.81,1.81,0,0,1,.2.85,2.21,2.21,0,0,1-.38,1.31,2.85,2.85,0,0,1-1,.84,4.86,4.86,0,0,1-1.3.44,7.14,7.14,0,0,1-3,0,5,5,0,0,1-1.44-.53l.52-1.29a4.86,4.86,0,0,0,1.08.42,4.33,4.33,0,0,0,1.24.18,2.59,2.59,0,0,0,1.54-.39,1.2,1.2,0,0,0,.53-1,1.1,1.1,0,0,0-.18-.64,1.32,1.32,0,0,0-.5-.43,2.48,2.48,0,0,0-.77-.23,7,7,0,0,0-.95-.06h-.92V20Z" transform="translate(-0.73 -0.73)"/><path class="cls-4" d="M143.84,16.35v3.13c0,.71,0,1.35,0,1.92s-.05,1.17-.09,1.8l0,0,.68-1.35.68-1.36,2.19-4.18h2.54v8.84H148V22.06c0-.66,0-1.31,0-2s.07-1.31.1-2H148a11.53,11.53,0,0,1-.62,1.42c-.2.4-.41.81-.61,1.24-.38.72-.75,1.45-1.12,2.18s-.77,1.47-1.18,2.24H142V16.35Z" transform="translate(-0.73 -0.73)"/><polygon class="cls-4" points="159.48 15.62 159.48 17.23 156.79 17.23 156.79 24.46 154.86 24.46 154.86 17.23 152.18 17.23 152.18 15.62 159.48 15.62 159.48 15.62"/><path class="cls-4" d="M168.35,19.84a2.68,2.68,0,0,0-.49-1.68,1.74,1.74,0,0,0-1.45-.65,1.88,1.88,0,0,0-1.45.66,2.8,2.8,0,0,0-.7,1.67Zm1.88.51c0,.17,0,.33,0,.48s0,.29-.05.41h-5.9a2.63,2.63,0,0,0,.79,1.94,2.9,2.9,0,0,0,2,.68,6.58,6.58,0,0,0,2.38-.42l.31,1.37a7.47,7.47,0,0,1-3,.54,5.09,5.09,0,0,1-1.85-.32,3.68,3.68,0,0,1-1.38-.9,3.86,3.86,0,0,1-.87-1.4,5.28,5.28,0,0,1-.3-1.83,5.76,5.76,0,0,1,.3-1.89,4.61,4.61,0,0,1,.85-1.5,3.85,3.85,0,0,1,1.32-1,4,4,0,0,1,1.72-.36,3.78,3.78,0,0,1,1.52.3,3.26,3.26,0,0,1,1.16.85,3.89,3.89,0,0,1,.73,1.33,5.22,5.22,0,0,1,.26,1.72Z" transform="translate(-0.73 -0.73)"/><path class="cls-4" d="M180,23.86l.61.05a5.15,5.15,0,0,0,.58,0,7.65,7.65,0,0,0,.81-.05,3,3,0,0,0,.77-.21,1.37,1.37,0,0,0,.55-.42,1.05,1.05,0,0,0,.21-.69,1,1,0,0,0-.67-1,4.77,4.77,0,0,0-1.82-.29h-1v2.64ZM180,20h1a5.94,5.94,0,0,0,.87-.06,3.16,3.16,0,0,0,.71-.2,1.35,1.35,0,0,0,.49-.37.9.9,0,0,0,.17-.55.94.94,0,0,0-.5-.89,3.43,3.43,0,0,0-1.57-.28l-.54,0-.63.06V20Zm-1.89-3.53a12,12,0,0,1,1.35-.14c.54,0,1.1-.06,1.67-.06q.54,0,1.23.06a5.13,5.13,0,0,1,1.3.3,2.45,2.45,0,0,1,1,.68,1.74,1.74,0,0,1,.43,1.23,1.81,1.81,0,0,1-.15.72,2,2,0,0,1-.39.56,2.3,2.3,0,0,1-.57.39,3,3,0,0,1-.66.23l0,.05a3.11,3.11,0,0,1,1.56.69,1.84,1.84,0,0,1,.6,1.46,2.07,2.07,0,0,1-.51,1.47,3.17,3.17,0,0,1-1.25.82,5.85,5.85,0,0,1-1.58.34c-.55.05-1,.08-1.48.08s-1,0-1.42,0l-1.18-.07V16.42Z" transform="translate(-0.73 -0.73)"/></g></g></svg>