<svg xmlns="http://www.w3.org/2000/svg" xmlns:xlink="http://www.w3.org/1999/xlink" viewBox="0 0 253.12 75"><defs><style>.cls-1{fill:#a6a6a6;}.cls-2,.cls-9{fill:#fff;}.cls-3{fill:url(#linear-gradient);}.cls-4{fill:url(#linear-gradient-2);}.cls-5{fill:url(#linear-gradient-3);}.cls-6{fill:url(#linear-gradient-4);}.cls-7{opacity:0.2;}.cls-7,.cls-8,.cls-9{isolation:isolate;}.cls-8{opacity:0.12;}.cls-9{opacity:0.25;}</style><linearGradient id="linear-gradient" x1="40.87" y1="-835.05" x2="9.41" y2="-866.52" gradientTransform="matrix(1, 0, 0, -1, 0, -818.72)" gradientUnits="userSpaceOnUse"><stop offset="0" stop-color="#00a0ff"/><stop offset="0.01" stop-color="#00a1ff"/><stop offset="0.26" stop-color="#00beff"/><stop offset="0.51" stop-color="#00d2ff"/><stop offset="0.76" stop-color="#00dfff"/><stop offset="1" stop-color="#00e3ff"/></linearGradient><linearGradient id="linear-gradient-2" x1="63.44" y1="-856.22" x2="18.07" y2="-856.22" gradientTransform="matrix(1, 0, 0, -1, 0, -818.72)" gradientUnits="userSpaceOnUse"><stop offset="0" stop-color="#ffe000"/><stop offset="0.41" stop-color="#ffbd00"/><stop offset="0.78" stop-color="orange"/><stop offset="1" stop-color="#ff9c00"/></linearGradient><linearGradient id="linear-gradient-3" x1="46.55" y1="-860.52" x2="3.88" y2="-903.2" gradientTransform="matrix(1, 0, 0, -1, 0, -818.72)" gradientUnits="userSpaceOnUse"><stop offset="0" stop-color="#ff3a44"/><stop offset="1" stop-color="#c31162"/></linearGradient><linearGradient id="linear-gradient-4" x1="13.68" y1="-819.05" x2="32.74" y2="-838.1" gradientTransform="matrix(1, 0, 0, -1, 0, -818.72)" gradientUnits="userSpaceOnUse"><stop offset="0" stop-color="#32a071"/><stop offset="0.07" stop-color="#2da771"/><stop offset="0.48" stop-color="#15cf74"/><stop offset="0.8" stop-color="#06e775"/><stop offset="1" stop-color="#00f076"/></linearGradient></defs><title>google_play</title><g id="Слой_2" data-name="Слой 2"><g id="Слой_1-2" data-name="Слой 1"><path class="cls-1" d="M243.75,1.5a7.88,7.88,0,0,1,7.87,7.88V65.62a7.88,7.88,0,0,1-7.87,7.88H9.38A7.88,7.88,0,0,1,1.5,65.62V9.38A7.88,7.88,0,0,1,9.38,1.5H243.75m0-1.5H9.38A9.41,9.41,0,0,0,0,9.38V65.62A9.41,9.41,0,0,0,9.38,75H243.75a9.4,9.4,0,0,0,9.37-9.38V9.38A9.4,9.4,0,0,0,243.75,0Z"/><path class="cls-2" d="M127.75,40.78a8,8,0,1,0,8,8A7.86,7.86,0,0,0,127.75,40.78Zm0,12.81a4.84,4.84,0,1,1,4.51-4.83A4.61,4.61,0,0,1,127.75,53.59ZM110.29,40.78a8,8,0,1,0,8,8A7.86,7.86,0,0,0,110.29,40.78Zm0,12.81a4.84,4.84,0,1,1,4.5-4.83A4.61,4.61,0,0,1,110.29,53.59ZM89.52,43.23v3.38h8.09a7,7,0,0,1-1.84,4.26,8.28,8.28,0,0,1-6.25,2.48,9,9,0,0,1,0-18,8.61,8.61,0,0,1,6.1,2.41L98,35.38A11.79,11.79,0,0,0,89.52,32a12.39,12.39,0,1,0,0,24.77,11,11,0,0,0,11.57-11.38,11.18,11.18,0,0,0-.18-2.12Zm85,2.63c-.66-1.78-2.69-5.08-6.82-5.08s-7.53,3.24-7.53,8a7.81,7.81,0,0,0,7.92,8,7.92,7.92,0,0,0,6.64-3.53L172,51.39a4.56,4.56,0,0,1-3.93,2.2,4.06,4.06,0,0,1-3.87-2.41l10.66-4.41ZM163.6,48.52a4.37,4.37,0,0,1,4.17-4.65,3.09,3.09,0,0,1,3,1.69Zm-8.67,7.73h3.5V32.81h-3.5Zm-5.74-13.68h-.12a5.53,5.53,0,0,0-4.2-1.79,8,8,0,0,0,0,15.95,5.44,5.44,0,0,0,4.2-1.81h.12v1.15c0,3-1.63,4.68-4.26,4.68a4.43,4.43,0,0,1-4-2.84l-3,1.27a7.61,7.61,0,0,0,7.07,4.71c4.11,0,7.58-2.41,7.58-8.3V41.27h-3.32Zm-4,11a4.85,4.85,0,0,1,0-9.66c2.39,0,4.26,2,4.26,4.86S147.56,53.59,145.17,53.59Zm45.72-20.78H182.5V56.25H186V47.37h4.89a7.29,7.29,0,1,0,0-14.56Zm.09,11.3h-5v-8h5a4,4,0,1,1,0,8Zm21.62-3.37a6.57,6.57,0,0,0-6.24,3.59l3.1,1.3a3.32,3.32,0,0,1,3.2-1.72c1.81,0,3.65,1.08,3.68,3v.24a7.79,7.79,0,0,0-3.65-.9c-3.35,0-6.76,1.84-6.76,5.28,0,3.13,2.75,5.15,5.82,5.15a4.94,4.94,0,0,0,4.47-2.29h.12v1.81h3.37v-9C219.71,43.06,216.61,40.74,212.6,40.74Zm-.42,12.85c-1.15,0-2.75-.58-2.75-2,0-1.81,2-2.51,3.71-2.51a6.27,6.27,0,0,1,3.2.79A4.24,4.24,0,0,1,212.18,53.59ZM232,41.25l-4,10.17h-.12l-4.16-10.17H220l6.24,14.21-3.56,7.9h3.65l9.62-22.11Zm-31.51,15H204V32.81h-3.49Z"/><path class="cls-3" d="M19.57,14.13a3.76,3.76,0,0,0-.87,2.64V58.24a3.73,3.73,0,0,0,.87,2.63l.13.13L42.93,37.78v-.55L19.7,14Z"/><path class="cls-4" d="M50.68,45.52l-7.75-7.74v-.55l7.75-7.75.17.1L60,34.8c2.62,1.48,2.62,3.92,0,5.41l-9.18,5.21Z"/><path class="cls-5" d="M50.85,45.42,42.93,37.5,19.57,60.87c.86.91,2.29,1,3.89.11L50.85,45.42"/><path class="cls-6" d="M50.85,29.58,23.46,14c-1.6-.91-3-.8-3.89.11L42.93,37.5Z"/><path class="cls-7" d="M50.68,45.25,23.46,60.71c-1.52.87-2.88.81-3.75,0h0l-.14.14h0l.13.14h0c.87.79,2.23.85,3.75,0L50.85,45.42Z"/><path class="cls-8" d="M19.57,60.6A3.76,3.76,0,0,1,18.7,58v.28a3.73,3.73,0,0,0,.87,2.63l.14-.14Z"/><path class="cls-8" d="M60,39.93l-9.35,5.32.17.17L60,40.21a3.3,3.3,0,0,0,2-2.71h0A3.46,3.46,0,0,1,60,39.93Z"/><path class="cls-9" d="M23.46,14.29,60,35.07a3.46,3.46,0,0,1,2,2.43h0a3.3,3.3,0,0,0-2-2.71L23.46,14c-2.62-1.49-4.76-.25-4.76,2.75V17C18.7,14,20.84,12.8,23.46,14.29Z"/><path class="cls-2" d="M88.56,21.73l0,.06a4.36,4.36,0,0,1-1.35,3.46,5.48,5.48,0,0,1-3.81,1.25,5.32,5.32,0,0,1-4-1.6,5.74,5.74,0,0,1-1.52-4.12V18a5.82,5.82,0,0,1,1.49-4.12,5.07,5.07,0,0,1,3.9-1.61,5.78,5.78,0,0,1,3.93,1.23A4.26,4.26,0,0,1,88.6,17l0,.06H85.89a2.7,2.7,0,0,0-.64-2,2.67,2.67,0,0,0-2-.65,2.24,2.24,0,0,0-1.94,1A4.46,4.46,0,0,0,80.65,18v2.76a4.27,4.27,0,0,0,.73,2.59,2.38,2.38,0,0,0,2,1,2.43,2.43,0,0,0,1.85-.64,2.83,2.83,0,0,0,.61-2Z"/><path class="cls-2" d="M95.17,20.54h-1V26.3H91.39V12.51h2.76v5.63h.78l3.78-5.63h3.42l-4.78,6.41,5.14,7.38H99Z"/><path class="cls-2" d="M115,20.64a5.77,5.77,0,0,1-1.6,4.2,6,6,0,0,1-8.31,0,5.82,5.82,0,0,1-1.59-4.2V18.16A5.79,5.79,0,0,1,105.05,14a5.43,5.43,0,0,1,4.13-1.67A5.54,5.54,0,0,1,113.35,14,5.72,5.72,0,0,1,115,18.16Zm-2.75-2.5a4.16,4.16,0,0,0-.81-2.64,2.66,2.66,0,0,0-2.22-1,2.6,2.6,0,0,0-2.18,1,4.27,4.27,0,0,0-.78,2.64v2.5a4.28,4.28,0,0,0,.78,2.67,2.86,2.86,0,0,0,4.41,0,4.22,4.22,0,0,0,.8-2.67Z"/><path class="cls-2" d="M120.72,21.3v5H118V12.51h5.27A5.48,5.48,0,0,1,127,13.72a4.07,4.07,0,0,1,1.36,3.19A4.06,4.06,0,0,1,127,20.1a5.47,5.47,0,0,1-3.74,1.2Zm0-2.13h2.51a2.3,2.3,0,0,0,1.75-.63,2.25,2.25,0,0,0,.6-1.61,2.36,2.36,0,0,0-.59-1.64,2.28,2.28,0,0,0-1.76-.65h-2.51Z"/><path class="cls-2" d="M142.29,20.64a5.81,5.81,0,0,1-1.6,4.2,6,6,0,0,1-8.32,0,5.82,5.82,0,0,1-1.59-4.2V18.16A5.79,5.79,0,0,1,132.37,14a5.45,5.45,0,0,1,4.13-1.67A5.57,5.57,0,0,1,140.68,14a5.76,5.76,0,0,1,1.61,4.18Zm-2.76-2.5a4.21,4.21,0,0,0-.8-2.64,2.69,2.69,0,0,0-2.23-1,2.6,2.6,0,0,0-2.18,1,4.27,4.27,0,0,0-.78,2.64v2.5a4.28,4.28,0,0,0,.78,2.67,2.87,2.87,0,0,0,4.42,0,4.22,4.22,0,0,0,.79-2.67Z"/><path class="cls-2" d="M150.85,26.3V12.51h4.52a6.57,6.57,0,0,1,3.79,1,3.24,3.24,0,0,1,1.37,2.83A3,3,0,0,1,160,18a2.92,2.92,0,0,1-1.43,1.13,3,3,0,0,1,1.94,1.12,3.39,3.39,0,0,1,.65,2.05,3.58,3.58,0,0,1-1.31,3,5.88,5.88,0,0,1-3.7,1Zm2.77-8h1.84a2.74,2.74,0,0,0,1.71-.46,1.57,1.57,0,0,0,.59-1.32,1.65,1.65,0,0,0-.6-1.41,2.9,2.9,0,0,0-1.79-.46h-1.75Zm0,1.91v4h2.56a2.59,2.59,0,0,0,1.68-.48,1.75,1.75,0,0,0,.57-1.42,2,2,0,0,0-.56-1.54,2.41,2.41,0,0,0-1.72-.54Z"/></g></g></svg>