<svg xmlns="http://www.w3.org/2000/svg" viewBox="0 0 98.11 98.11"><defs><style>.cls-1,.cls-2{fill:none;stroke:#fff;stroke-miterlimit:10;}.cls-1{stroke-width:1.91px;}.cls-2{stroke-width:2.86px;}</style></defs><title>logo</title><g id="Слой_2" data-name="Слой 2"><g id="Слой_1-2" data-name="Слой 1"><path class="cls-1" d="M49.19,59.81l-9.07-7.69c3,.1,6,.16,8.93.16s6.14-.06,9.2-.18ZM38.32,45.52v-4.4c3.57.15,7.15.24,10.73.24s7.17-.09,10.74-.24v4.4C52.65,45.83,45.46,45.83,38.32,45.52Zm28-4.76a.93.93,0,0,0,.82-1V24.23a1,1,0,0,0-.28-.7.81.81,0,0,0-.65-.26l-1.69.1V21.68a2.38,2.38,0,1,0-4.74,0v1.94c-7.14.31-14.33.31-21.47,0V21.68a2.38,2.38,0,1,0-4.74,0v1.69l-1.69-.1a.81.81,0,0,0-.65.26,1,1,0,0,0-.28.7V39.8a.93.93,0,0,0,.82,1l1.8.11v4.4l-1.69-.11a.85.85,0,0,0-.65.26,1,1,0,0,0-.28.71v4.58a.94.94,0,0,0,.82,1l.31,0L45.41,63.08,32,74.58a2.57,2.57,0,0,0-.79,2.72A2.35,2.35,0,0,0,35,78.5L49.19,66.32l14,11.93a2.31,2.31,0,0,0,1.5.55,2.38,2.38,0,0,0,2.29-1.75,2.58,2.58,0,0,0-.78-2.72L53,63.08l13.31-11.4a.94.94,0,0,0,.87-1V46.13a1,1,0,0,0-.28-.71.85.85,0,0,0-.65-.26l-1.69.11v-4.4Z"/><circle class="cls-2" cx="49.05" cy="49.05" r="47.63"/></g></g></svg>